<?xml version="1.0" encoding="UTF-8"?>
<!DOCTYPE svg PUBLIC "-//W3C//DTD SVG 1.1//EN" "http://www.w3.org/Graphics/SVG/1.1/DTD/svg11.dtd">
<!-- Creator: CorelDRAW X6 -->
<svg xmlns="http://www.w3.org/2000/svg" xml:space="preserve" width="1400px" height="925px" version="1.1" style="shape-rendering:geometricPrecision; text-rendering:geometricPrecision; image-rendering:optimizeQuality; fill-rule:evenodd; clip-rule:evenodd"
viewBox="0 0 1568 1035"
 xmlns:xlink="http://www.w3.org/1999/xlink">
 <defs>
  <style type="text/css">
   <![CDATA[
    .str0 {stroke:#332C2B;stroke-width:1.1456}
    .str2 {stroke:#332C2B;stroke-width:1.1456}
    .str4 {stroke:#332C2B;stroke-width:1.1456;stroke-dasharray:1.145596 5.727982}
    .str3 {stroke:#332C2B;stroke-width:1.1456;stroke-dasharray:2.291193 5.727982}
    .str1 {stroke:#332C2B;stroke-width:1.1456;stroke-dasharray:2.291193 5.727982}
    .fil0 {fill:none}
   ]]>
  </style>
 </defs>
 <g id="plan">
  <metadata id="CorelCorpID_0Corel-Layer"/>
  <g id="cr">
   <line class="fil0 str0" x1="505" y1="526" x2="505" y2= "681" />
   <line class="fil0 str0" x1="956" y1="247" x2="505" y2= "526" />
   <line class="fil0 str0" x1="956" y1="247" x2="956" y2= "402" />
   <line class="fil0 str0" x1="956" y1="402" x2="505" y2= "681" />
   <line class="fil0 str1" x1="796" y1="184" x2="642" y2= "279" />
   <line class="fil0 str0" x1="505" y1="681" x2="345" y2= "618" />
   <path class="fil0 str0" d="M345 618l0 -155m0 0l160 63"/>
   <line class="fil0 str2" x1="642" y1="279" x2="345" y2= "463" />
  </g>
  <g id="td">
   <line class="fil0 str0" x1="111" y1="371" x2="111" y2= "526" />
   <line class="fil0 str0" x1="562" y1="93" x2="111" y2= "371" />
   <line class="fil0 str0" x1="562" y1="93" x2="562" y2= "248" />
   <line class="fil0 str0" x1="562" y1="248" x2="111" y2= "526" />
  </g>
  <g id="td_b">
   <path class="fil0 str2" d="M530 1c-87,54 -149,155 -246,177 -95,22 -161,136 -284,150"/>
   <line class="fil0 str0" x1="111" y1="526" x2="1" y2= "483" />
   <path class="fil0 str0" d="M1 483c4,-23 -3,-46 12,-69 18,-27 -8,-57 -12,-86m0 0l111 43"/>
  </g>
  <g id="exec">
   <line id="rule" class="fil0 str0" x1="796" y1="184" x2="562" y2= "93" />
   <line id="rule_0" class="fil0 str0" x1="796" y1="340" x2="562" y2= "248" />
   <line class="fil0 str0" x1="796" y1="184" x2="796" y2= "340" />
   <line id="rule_1" class="fil0 str0" x1="1114" y1="465" x2="956" y2= "402" />
   <line id="rule_2" class="fil0 str3" x1="1114" y1="310" x2="1114" y2= "465" />
   <line id="rule_3" class="fil0 str0" x1="1114" y1="310" x2="956" y2= "247" />
   <line id="rule_4" class="fil0 str0" x1="1193" y1="261" x2="530" y2= "1" />
   <line id="rule_5" class="fil0 str0" x1="1470" y1="660" x2="1311" y2= "598" />
   <line id="rule_6" class="fil0 str0" x1="1470" y1="505" x2="1470" y2= "660" />
   <line id="rule_7" class="fil0 str0" x1="1470" y1="505" x2="1311" y2= "443" />
   <line class="fil0 str0" x1="1470" y1="660" x2="1567" y2= "600" />
   <line class="fil0 str0" x1="1470" y1="505" x2="1567" y2= "445" />
   <line class="fil0 str0" x1="1446" y1="360" x2="1408" y2= "383" />
   <line id="rule_8" class="fil0 str0" x1="1567" y1="445" x2="1408" y2= "383" />
   <line id="rule_9" class="fil0 str0" x1="1567" y1="445" x2="1567" y2= "600" />
   <line class="fil0 str0" x1="1446" y1="397" x2="1446" y2= "360" />
   <line class="fil0 str0" x1="1311" y1="443" x2="1311" y2= "598" />
   <line class="fil0 str3" x1="1114" y1="310" x2="1193" y2= "261" />
   <line id="rule_10" class="fil0 str3" x1="1193" y1="261" x2="1193" y2= "362" />
   <line class="fil0 str3" x1="1114" y1="465" x2="1124" y2= "459" />
   <line class="fil0 str0" x1="1290" y1="299" x2="1446" y2= "360" />
  </g>
  <g id="_729763328">
   <line id="rule_11" class="fil0 str0" x1="982" y1="880" x2="600" y2= "730" />
   <line id="rule_12" class="fil0 str0" x1="1150" y1="776" x2="919" y2= "685" />
   <line class="fil0 str0" x1="600" y1="730" x2="600" y2= "885" />
   <line class="fil0 str2" x1="1150" y1="776" x2="982" y2= "880" />
   <line class="fil0 str0" x1="982" y1="880" x2="982" y2= "1035" />
   <line class="fil0 str0" x1="1150" y1="776" x2="1150" y2= "931" />
   <line id="rule_13" class="fil0 str0" x1="982" y1="1035" x2="600" y2= "885" />
   <line class="fil0 str2" x1="1150" y1="931" x2="982" y2= "1035" />
   <polyline class="fil0 str2" points="600,730 740,643 798,607 "/>
   <line class="fil0 str3" x1="798" y1="607" x2="949" y2= "666" />
   <polyline class="fil0 str2" points="930,526 999,483 1028,465 "/>
   <line class="fil0 str3" x1="1081" y1="585" x2="1081" y2= "740" />
   <line class="fil0 str3" x1="1028" y1="465" x2="1179" y2= "525" />
   <line class="fil0 str3" x1="1179" y1="525" x2="1179" y2= "680" />
   <line class="fil0 str0" x1="1179" y1="680" x2="1081" y2= "740" />
   <line class="fil0 str0" x1="1179" y1="525" x2="1081" y2= "585" />
   <line class="fil0 str3" x1="949" y1="666" x2="949" y2= "697" />
   <line class="fil0 str0" x1="919" y1="685" x2="949" y2= "666" />
   <line class="fil0 str3" x1="930" y1="526" x2="1081" y2= "585" />
   <line class="fil0 str3" x1="1124" y1="407" x2="1274" y2= "466" />
   <line class="fil0 str3" x1="1274" y1="466" x2="1274" y2= "621" />
   <line class="fil0 str3" x1="1124" y1="407" x2="1124" y2= "503" />
   <line class="fil0 str3" x1="1179" y1="583" x2="1274" y2= "621" />
   <line class="fil0 str0" x1="1312" y1="443" x2="1274" y2= "466" />
   <line class="fil0 str0" x1="1312" y1="598" x2="1274" y2= "621" />
   <line class="fil0 str4" x1="1290" y1="299" x2="1216" y2= "347" />
   <line class="fil0 str3" x1="930" y1="526" x2="930" y2= "658" />
   <line class="fil0 str3" x1="949" y1="689" x2="1081" y2= "740" />
   <line class="fil0 str0" x1="1216" y1="349" x2="1124" y2= "407" />
  </g>
 </g>
</svg>
